<?xml version="1.0" standalone="no"?>
<!DOCTYPE svg PUBLIC "-//W3C//DTD SVG 20010904//EN"
 "http://www.w3.org/TR/2001/REC-SVG-20010904/DTD/svg10.dtd">
<svg version="1.0" xmlns="http://www.w3.org/2000/svg"
 viewBox="0 0 2600.000000 2600.000000"
 preserveAspectRatio="xMidYMid meet">
<metadata>
Created by potrace 1.15, written by Peter Selinger 2001-2017
</metadata>
<g transform="translate(0.000000,2600.000000) scale(0.100000,-0.100000)"
fill="#000000" stroke="none">
<path d="M5925 23345 c-22 -8 -57 -32 -77 -55 -41 -46 -43 -57 -53 -233 -27
-514 -278 -994 -625 -1197 -138 -81 -247 -114 -439 -134 -141 -14 -162 -23
-206 -80 -51 -66 -46 -163 11 -226 43 -48 68 -56 214 -69 247 -23 446 -116
619 -289 254 -254 402 -626 430 -1079 8 -133 10 -145 36 -179 69 -91 183 -107
266 -37 48 41 69 95 69 183 0 41 5 115 10 165 63 550 346 999 731 1161 109 46
174 62 327 77 142 15 163 23 209 84 24 31 28 45 28 103 0 58 -4 72 -28 103
-46 60 -66 68 -210 83 -72 8 -165 23 -206 34 -287 79 -538 309 -690 631 -105
224 -170 505 -171 739 -1 119 -48 195 -138 220 -47 13 -58 12 -107 -5z m223
-1355 c88 -134 264 -317 380 -395 39 -27 72 -51 72 -55 0 -4 -32 -29 -72 -55
-188 -129 -361 -334 -488 -577 l-56 -108 -28 58 c-132 273 -319 494 -549 651
l-47 32 77 51 c102 68 281 248 365 368 37 52 93 145 125 207 l58 112 43 -87
c24 -48 78 -139 120 -202z"/>
<path d="M3235 19103 c-355 -42 -635 -163 -892 -383 -199 -169 -373 -430 -458
-684 -39 -118 -63 -236 -75 -381 -8 -93 -10 -1244 -8 -4035 3 -3627 5 -3911
20 -3995 37 -192 100 -372 182 -516 242 -422 628 -694 1111 -785 159 -30 1064
-36 7050 -42 l5760 -7 -46 -32 c-134 -93 -311 -154 -484 -167 -114 -9 -144
-19 -183 -59 -57 -59 -68 -137 -31 -214 33 -69 79 -90 225 -102 315 -28 557
-165 753 -430 181 -245 311 -659 311 -992 0 -79 28 -141 79 -174 71 -47 157
-42 222 12 52 44 61 74 70 236 25 429 177 807 424 1052 184 184 372 273 625
295 136 12 168 21 203 58 54 56 70 132 42 199 -35 83 -74 103 -235 120 -134
14 -226 37 -330 85 -60 27 -190 105 -190 114 0 2 779 4 1730 4 l1730 0 0 -850
0 -849 -542 -3 -543 -3 -47 -32 c-28 -20 -54 -49 -67 -76 l-21 -43 0 -1858 c0
-1684 2 -1861 16 -1892 22 -46 85 -100 131 -113 53 -15 2703 -15 2756 0 46 13
109 67 131 113 14 31 16 208 16 1892 l0 1858 -21 43 c-13 27 -39 56 -67 76
l-47 32 -542 3 -543 3 0 859 0 860 289 0 c399 0 540 16 749 85 240 80 424 195
613 384 226 227 364 479 432 794 l22 102 0 4040 c0 3915 -1 4043 -19 4130
-143 686 -693 1191 -1378 1265 -67 7 -3004 10 -9495 9 -5169 -1 -9411 -4
-9428 -6z m18910 -798 c300 -62 526 -279 607 -585 l23 -85 0 -3930 0 -3930
-22 -85 c-44 -164 -142 -319 -266 -421 -70 -57 -212 -130 -302 -154 -66 -19
-415 -34 -415 -19 0 5 20 58 45 117 134 323 259 817 259 1022 0 118 -17 183
-77 300 -53 102 -195 249 -310 320 -168 103 -384 174 -594 195 -77 8 -2516 10
-8483 8 l-8375 -4 -96 -21 c-443 -99 -750 -338 -829 -648 -25 -99 -25 -182 0
-332 50 -290 142 -594 287 -952 5 -11 -24 -12 -173 -8 -200 5 -269 19 -396 82
-197 97 -340 271 -410 495 l-23 75 -3 3925 c-2 3569 -1 3932 14 4005 64 320
299 562 611 629 59 13 1249 14 9461 15 8378 1 9401 -1 9467 -14z m-1017 -7884
c175 -37 332 -136 332 -210 0 -173 -184 -733 -338 -1026 l-47 -90 -2092 -3
-2091 -2 -10 47 c-24 111 -32 176 -41 304 -9 138 -16 165 -55 207 -75 83 -220
71 -285 -24 -21 -31 -26 -53 -32 -157 -5 -67 -18 -179 -30 -249 l-22 -128
-6062 0 -6062 0 -50 98 c-152 290 -333 842 -333 1012 0 48 4 56 36 87 65 60
206 122 332 143 26 4 3807 8 8402 9 8194 1 8357 0 8448 -18z m-4326 -2056
c121 -180 265 -333 401 -425 37 -25 67 -48 67 -51 0 -3 -33 -27 -72 -54 -40
-27 -125 -101 -189 -165 -126 -125 -232 -273 -312 -434 l-44 -89 -43 89 c-87
176 -254 398 -381 506 -30 25 -87 68 -127 96 l-72 50 52 37 c108 77 194 152
266 235 82 94 205 275 266 391 l40 76 44 -86 c24 -47 71 -126 104 -176z m4038
-2555 l0 -350 -71 0 c-233 0 -430 -139 -502 -353 -20 -58 -21 -88 -25 -479 -2
-259 1 -451 7 -505 26 -212 173 -381 377 -433 71 -18 111 -20 519 -20 410 0
447 1 521 20 99 26 171 68 242 145 72 78 119 176 133 281 7 52 9 234 7 505 -4
403 -5 427 -26 489 -71 213 -266 349 -499 350 l-73 0 0 350 0 350 400 0 400 0
0 -1595 0 -1595 -1105 0 -1105 0 0 1595 0 1595 400 0 400 0 0 -350z m739 -785
c16 -8 31 -22 35 -30 3 -9 6 -204 6 -434 l0 -418 -26 -24 -26 -24 -423 0 -423
0 -26 24 -26 24 0 422 c0 443 0 439 45 463 14 8 152 11 428 12 339 0 413 -2
436 -15z"/>
<path d="M3710 17045 c-25 -8 -65 -31 -88 -51 -129 -110 -129 -308 -1 -418 23
-19 63 -42 88 -51 42 -13 970 -15 8991 -13 l8945 3 53 29 c95 53 141 133 141
241 -1 106 -50 191 -140 240 l-54 30 -8945 2 c-7636 1 -8952 0 -8990 -12z"/>
<path d="M3728 15816 c-103 -28 -176 -107 -198 -213 -26 -123 40 -248 160
-302 l45 -21 8951 0 8950 0 52 26 c174 87 206 318 62 447 -23 22 -59 46 -79
55 -33 16 -685 17 -8966 19 -7178 1 -8939 -1 -8977 -11z"/>
<path d="M3704 14577 c-52 -20 -100 -58 -132 -106 -109 -161 -19 -381 172
-421 36 -7 2740 -9 8971 -8 8271 3 8923 4 8956 20 20 9 56 33 79 55 144 129
112 360 -62 447 l-52 26 -8950 -1 c-6826 0 -8958 -3 -8982 -12z"/>
<path d="M3710 13345 c-25 -8 -65 -31 -88 -51 -130 -110 -130 -308 0 -418 23
-20 65 -43 93 -51 44 -13 1162 -15 8990 -13 l8940 3 53 29 c191 106 191 376 0
482 l-53 29 -8945 2 c-7636 1 -8952 0 -8990 -12z"/>
</g>
</svg>
