<?xml version="1.0" standalone="no"?>
<!DOCTYPE svg PUBLIC "-//W3C//DTD SVG 20010904//EN"
 "http://www.w3.org/TR/2001/REC-SVG-20010904/DTD/svg10.dtd">
<svg version="1.0" xmlns="http://www.w3.org/2000/svg"
 viewBox="0 0 2600.000000 2600.000000"
 preserveAspectRatio="xMidYMid meet">
<metadata>
Created by potrace 1.15, written by Peter Selinger 2001-2017
</metadata>
<g transform="translate(0.000000,2600.000000) scale(0.100000,-0.100000)"
fill="#000000" stroke="none">
<path d="M2922 12318 l3 -5773 9543 -3 9542 -2 0 5775 0 5775 -9545 0 -9545 0
2 -5772z m3918 4428 c-14 -13 -594 -527 -1290 -1141 -696 -615 -1275 -1127
-1287 -1138 l-23 -20 0 1161 0 1162 1312 0 1313 0 -25 -24z m2195 15 c-6 -4
-1049 -928 -2320 -2051 -1270 -1124 -2347 -2077 -2392 -2118 l-83 -74 0 669 0
670 1646 1456 1646 1457 756 0 c427 0 752 -4 747 -9z m7445 -4446 l0 -4455
-6120 0 -6120 0 1 2038 0 2037 2732 2417 2732 2417 3388 0 3387 1 0 -4455z
m4420 3965 l0 -220 -1640 0 -1640 0 0 220 0 220 1640 0 1640 0 0 -220z m0
-1240 l0 -220 -1640 0 -1640 0 0 220 0 220 1640 0 1640 0 0 -220z m0 -1240 l0
-220 -1640 0 -1640 0 0 220 0 220 1640 0 1640 0 0 -220z m-1415 -2515 c360
-54 662 -209 916 -472 118 -122 203 -243 279 -398 66 -135 98 -227 132 -377
20 -91 23 -129 23 -323 -1 -189 -4 -234 -23 -318 -144 -647 -645 -1129 -1287
-1239 -158 -27 -448 -22 -593 11 -202 45 -385 123 -557 239 -339 227 -579 584
-666 991 -27 126 -36 382 -19 517 76 606 500 1118 1085 1309 84 27 176 47 315
68 66 11 305 5 395 -8z"/>
<path d="M19112 10859 c-373 -48 -715 -294 -886 -637 -68 -135 -116 -346 -116
-507 0 -226 85 -487 219 -669 413 -562 1215 -638 1719 -162 473 447 483 1187
23 1646 -253 253 -609 375 -959 329z"/>
</g>
</svg>
